# xmcd
#
# Track frame offsets: 
#        150
#        17155
#        33235
#        51063
#        70223
#        89983
#        106293
#        120158
#        138580
#        153593
#        169480
#        183815
#        201830
#        219478
#        242270
#
# Disc length: 3369 seconds
#
# Revision: 3
# Processed by: cddbd v1.5.2PL0 Copyright (c) Steve Scherf et al.
# Submitted via: ExactAudioCopy v0.99pb4
#
DISCID=ce0d270f
DTITLE=Sacco and Mancetti - Famous
DYEAR=1991
DGENRE=Folk/Rock
TTITLE0=What They Call Love
TTITLE1=Wide Country
TTITLE2=Because It's Me And You
TTITLE3=Smoke Signs
TTITLE4=Say You Will
TTITLE5=Never Let You Go
TTITLE6=She Starts Me Up
TTITLE7=Without You
TTITLE8=Lonely
TTITLE9=You Ain't Made For Love
TTITLE10=Promised Land
TTITLE11=Lovebound
TTITLE12=If We Start Now
TTITLE13=Sleepless Nights
TTITLE14=Lucille
EXTD=Label: Chrysalis Records GmbH\n1C 321860 2
EXTT0=
EXTT1=
EXTT2=
EXTT3=
EXTT4=
EXTT5=
EXTT6=
EXTT7=
EXTT8=
EXTT9=
EXTT10=
EXTT11=
EXTT12=
EXTT13=
EXTT14=
PLAYORDER=
